<svg width="35" height="35" viewBox="0 0 35 35" fill="none" xmlns="http://www.w3.org/2000/svg">
<rect width="35" height="35" rx="17.5" fill="url(#paint0_linear_168_45)"/>
<path fill-rule="evenodd" clip-rule="evenodd" d="M4.19946 7.57118C4.19946 7.10806 4.56401 6.73264 5.0137 6.73264H7.07783C7.89092 6.73264 8.61388 7.26549 8.87615 8.0581L9.38459 9.59458H22.9265C25.7745 9.59458 28.0833 11.9723 28.0833 14.9053V19.5368C28.0833 22.4699 25.7745 24.8476 22.9265 24.8476H14.8016C12.3052 24.8476 10.1673 23.006 9.72596 20.4756L8.0113 10.6437L7.33473 8.59907C7.29726 8.48584 7.19398 8.40972 7.07783 8.40972H5.0137C4.56401 8.40972 4.19946 8.03429 4.19946 7.57118ZM9.77535 11.2717L11.3288 20.1791C11.6307 21.9105 13.0935 23.1705 14.8016 23.1705H22.9265C24.8751 23.1705 26.4548 21.5436 26.4548 19.5368V14.9053C26.4548 12.8985 24.8751 11.2717 22.9265 11.2717H9.77535Z" fill="white"/>
<path fill-rule="evenodd" clip-rule="evenodd" d="M21.5669 14.2795C22.0166 14.2795 22.3811 14.6549 22.3811 15.1181V19.5903C22.3811 20.0534 22.0166 20.4288 21.5669 20.4288C21.1172 20.4288 20.7526 20.0534 20.7526 19.5903V15.1181C20.7526 14.6549 21.1172 14.2795 21.5669 14.2795Z" fill="white"/>
<path fill-rule="evenodd" clip-rule="evenodd" d="M15.5957 20.4288C16.0454 20.4288 16.4099 20.0534 16.4099 19.5903V15.1181C16.4099 14.6549 16.0454 14.2795 15.5957 14.2795C15.146 14.2795 14.7814 14.6549 14.7814 15.1181V19.5903C14.7814 20.0534 15.146 20.4288 15.5957 20.4288Z" fill="white"/>
<path fill-rule="evenodd" clip-rule="evenodd" d="M13.4246 27.9757C13.4246 27.0495 14.1537 26.2986 15.053 26.2986H15.0639C15.9633 26.2986 16.6924 27.0495 16.6924 27.9757C16.6924 28.9019 15.9633 29.6528 15.0639 29.6528H15.053C14.1537 29.6528 13.4246 28.9019 13.4246 27.9757Z" fill="white"/>
<path fill-rule="evenodd" clip-rule="evenodd" d="M22.1096 27.9757C22.1096 27.0495 22.8387 26.2986 23.7381 26.2986H23.7489C24.6483 26.2986 25.3774 27.0495 25.3774 27.9757C25.3774 28.9019 24.6483 29.6528 23.7489 29.6528H23.7381C22.8387 29.6528 22.1096 28.9019 22.1096 27.9757Z" fill="white"/>
<defs>
<linearGradient id="paint0_linear_168_45" x1="12.3375" y1="6" x2="27.56" y2="18.4317" gradientUnits="userSpaceOnUse">
<stop stop-color="#16C19D"/>
<stop offset="1" stop-color="#077899"/>
</linearGradient>
</defs>
</svg>
