<svg width="40" height="32" viewBox="0 0 40 32" fill="none" xmlns="http://www.w3.org/2000/svg">
<path d="M38 13.9999L6.82821 13.9999L17.4141 3.41378C18.1951 2.63277 18.1951 1.36676 17.4141 0.585755C16.6331 -0.195252 15.3667 -0.195252 14.5857 0.585755L0.585748 14.5859C-0.195247 15.3669 -0.195247 16.6334 0.585748 17.4139L14.5857 31.414C14.9762 31.8045 15.4882 32 16.0002 32C16.5116 32 17.0236 31.8045 17.4141 31.414C18.1951 30.633 18.1951 29.3665 17.4141 28.586L6.82821 17.9999L38 17.9999C39.104 17.9999 40 17.1044 40 15.9999C40 14.8954 39.1045 13.9999 38 13.9999Z" fill="white"/>
</svg>
