<svg width="20" height="20" viewBox="0 0 20 20" fill="none" xmlns="http://www.w3.org/2000/svg">
<path d="M10.754 10.0469L19.416 1.38481C19.6113 1.18956 19.6113 0.873 19.416 0.67775C19.2207 0.4825 18.9042 0.4825 18.7089 0.67775L10.0469 9.33975L1.3848 0.677687C1.18955 0.482437 0.872986 0.482437 0.677736 0.677687C0.482423 0.872938 0.482423 1.1895 0.677736 1.38475L9.33974 10.0469L0.677673 18.7089C0.482361 18.9042 0.482361 19.2208 0.677673 19.4161C0.775298 19.5137 0.903236 19.5625 1.03124 19.5625C1.15924 19.5625 1.28717 19.5137 1.3848 19.4161L10.0469 10.754L18.7089 19.4161C18.8066 19.5137 18.9345 19.5625 19.0625 19.5625C19.1905 19.5625 19.3184 19.5137 19.416 19.4161C19.6113 19.2208 19.6113 18.9042 19.416 18.7089L10.754 10.0469Z" fill="white"/>
</svg>
