<svg width="25" height="15" viewBox="0 0 25 15" fill="none" xmlns="http://www.w3.org/2000/svg">
<mask id="path-1-inside-1_237_157" fill="white">
<path d="M12.9 5C12.7917 5.00333 12.6875 5.04833 12.6108 5.12667L10.4125 7.31833L9.05833 5.96833C8.67917 5.57333 8.06667 6.18333 8.4625 6.56167L10.115 8.21C10.2792 8.37417 10.5458 8.37417 10.7108 8.21L13.2067 5.72083C13.4817 5.45417 13.2792 5 12.9008 5H12.9ZM0.416667 8.33333H2.91667C3.1475 8.33333 3.33333 8.51917 3.33333 8.75C3.33333 8.98083 3.1475 9.16667 2.91667 9.16667H0.416667C0.185833 9.16667 0 8.98083 0 8.75C0 8.51917 0.185833 8.33333 0.416667 8.33333ZM0.416667 5H2.91667C3.1475 5 3.33333 5.18583 3.33333 5.41667C3.33333 5.6475 3.1475 5.83333 2.91667 5.83333H0.416667C0.185833 5.83333 0 5.6475 0 5.41667C0 5.18583 0.185833 5 0.416667 5ZM0.416667 1.66667H2.91667C3.1475 1.66667 3.33333 1.8525 3.33333 2.08333C3.33333 2.31417 3.1475 2.5 2.91667 2.5H0.416667C0.185833 2.5 0 2.31417 0 2.08333C0 1.8525 0.185833 1.66667 0.416667 1.66667ZM20.4167 10.8333C19.2708 10.8333 18.3333 11.7708 18.3333 12.9167C18.3333 14.0625 19.2708 15 20.4167 15C21.5625 15 22.5 14.0625 22.5 12.9167C22.5 11.7708 21.5625 10.8333 20.4167 10.8333ZM20.4167 11.6667C21.1117 11.6667 21.6667 12.2217 21.6667 12.9167C21.6667 13.6117 21.1117 14.1667 20.4167 14.1667C19.7217 14.1667 19.1667 13.6117 19.1667 12.9167C19.1667 12.2217 19.7217 11.6667 20.4167 11.6667ZM9.58333 10.8333C8.4375 10.8333 7.5 11.7708 7.5 12.9167C7.5 14.0625 8.4375 15 9.58333 15C10.7292 15 11.6667 14.0625 11.6667 12.9167C11.6667 11.7708 10.7292 10.8333 9.58333 10.8333ZM9.58333 11.6667C10.2783 11.6667 10.8333 12.2217 10.8333 12.9167C10.8333 13.6117 10.2783 14.1667 9.58333 14.1667C8.88833 14.1667 8.33333 13.6117 8.33333 12.9167C8.33333 12.2217 8.88833 11.6667 9.58333 11.6667ZM5.41667 0C4.73167 0 4.16667 0.565 4.16667 1.25V10.4167C4.16667 11.1017 4.73167 11.6667 5.41667 11.6667H7.08333C7.64667 11.675 7.64667 10.825 7.08333 10.8333H5.41667C5.17833 10.8333 5 10.655 5 10.4167V1.25C5 1.01167 5.17833 0.833333 5.41667 0.833333H16.25C16.4883 0.833333 16.6667 1.01167 16.6667 1.25V10.8333H12.0833C11.5333 10.8333 11.5433 11.675 12.0833 11.6667H17.9167C18.4667 11.6667 18.4617 10.8333 17.9167 10.8333H17.5V3.33333H21.0225L24.1667 8.24667V10.4167C24.1667 10.655 23.9883 10.8333 23.75 10.8333H22.9167C22.3717 10.8333 22.3717 11.6667 22.9167 11.6667H23.75C24.435 11.6667 25 11.1017 25 10.4167V8.125C25 8.04583 24.9775 7.96667 24.935 7.9L21.6017 2.69167C21.525 2.5725 21.3933 2.5 21.25 2.5H17.5V1.25C17.5 0.565 16.935 0 16.25 0H5.41667Z"/>
</mask>
<path d="M12.9 5C12.7917 5.00333 12.6875 5.04833 12.6108 5.12667L10.4125 7.31833L9.05833 5.96833C8.67917 5.57333 8.06667 6.18333 8.4625 6.56167L10.115 8.21C10.2792 8.37417 10.5458 8.37417 10.7108 8.21L13.2067 5.72083C13.4817 5.45417 13.2792 5 12.9008 5H12.9ZM0.416667 8.33333H2.91667C3.1475 8.33333 3.33333 8.51917 3.33333 8.75C3.33333 8.98083 3.1475 9.16667 2.91667 9.16667H0.416667C0.185833 9.16667 0 8.98083 0 8.75C0 8.51917 0.185833 8.33333 0.416667 8.33333ZM0.416667 5H2.91667C3.1475 5 3.33333 5.18583 3.33333 5.41667C3.33333 5.6475 3.1475 5.83333 2.91667 5.83333H0.416667C0.185833 5.83333 0 5.6475 0 5.41667C0 5.18583 0.185833 5 0.416667 5ZM0.416667 1.66667H2.91667C3.1475 1.66667 3.33333 1.8525 3.33333 2.08333C3.33333 2.31417 3.1475 2.5 2.91667 2.5H0.416667C0.185833 2.5 0 2.31417 0 2.08333C0 1.8525 0.185833 1.66667 0.416667 1.66667ZM20.4167 10.8333C19.2708 10.8333 18.3333 11.7708 18.3333 12.9167C18.3333 14.0625 19.2708 15 20.4167 15C21.5625 15 22.5 14.0625 22.5 12.9167C22.5 11.7708 21.5625 10.8333 20.4167 10.8333ZM20.4167 11.6667C21.1117 11.6667 21.6667 12.2217 21.6667 12.9167C21.6667 13.6117 21.1117 14.1667 20.4167 14.1667C19.7217 14.1667 19.1667 13.6117 19.1667 12.9167C19.1667 12.2217 19.7217 11.6667 20.4167 11.6667ZM9.58333 10.8333C8.4375 10.8333 7.5 11.7708 7.5 12.9167C7.5 14.0625 8.4375 15 9.58333 15C10.7292 15 11.6667 14.0625 11.6667 12.9167C11.6667 11.7708 10.7292 10.8333 9.58333 10.8333ZM9.58333 11.6667C10.2783 11.6667 10.8333 12.2217 10.8333 12.9167C10.8333 13.6117 10.2783 14.1667 9.58333 14.1667C8.88833 14.1667 8.33333 13.6117 8.33333 12.9167C8.33333 12.2217 8.88833 11.6667 9.58333 11.6667ZM5.41667 0C4.73167 0 4.16667 0.565 4.16667 1.25V10.4167C4.16667 11.1017 4.73167 11.6667 5.41667 11.6667H7.08333C7.64667 11.675 7.64667 10.825 7.08333 10.8333H5.41667C5.17833 10.8333 5 10.655 5 10.4167V1.25C5 1.01167 5.17833 0.833333 5.41667 0.833333H16.25C16.4883 0.833333 16.6667 1.01167 16.6667 1.25V10.8333H12.0833C11.5333 10.8333 11.5433 11.675 12.0833 11.6667H17.9167C18.4667 11.6667 18.4617 10.8333 17.9167 10.8333H17.5V3.33333H21.0225L24.1667 8.24667V10.4167C24.1667 10.655 23.9883 10.8333 23.75 10.8333H22.9167C22.3717 10.8333 22.3717 11.6667 22.9167 11.6667H23.75C24.435 11.6667 25 11.1017 25 10.4167V8.125C25 8.04583 24.9775 7.96667 24.935 7.9L21.6017 2.69167C21.525 2.5725 21.3933 2.5 21.25 2.5H17.5V1.25C17.5 0.565 16.935 0 16.25 0H5.41667Z" fill="white"/>
<path d="M12.9 5V3H12.8692L12.8385 3.00095L12.9 5ZM12.6108 5.12667L14.0229 6.54303L14.0316 6.53436L14.0402 6.52559L12.6108 5.12667ZM10.4125 7.31833L9.00047 8.73472L10.4125 10.1424L11.8246 8.73469L10.4125 7.31833ZM9.05833 5.96833L7.6155 7.35333L7.63073 7.3692L7.6463 7.38472L9.05833 5.96833ZM8.4625 6.56167L9.87493 5.14567L9.85982 5.1306L9.84439 5.11585L8.4625 6.56167ZM10.115 8.21L11.5292 6.79579L11.5274 6.794L10.115 8.21ZM10.7108 8.21L12.1215 9.62779L12.1232 9.6261L10.7108 8.21ZM13.2067 5.72083L11.8144 4.28503L11.8043 4.29481L11.7943 4.30473L13.2067 5.72083ZM7.08333 11.6667L7.11292 9.66689L7.09813 9.66667H7.08333V11.6667ZM7.08333 10.8333V12.8333H7.09813L7.11292 12.8331L7.08333 10.8333ZM16.6667 10.8333V12.8333H18.6667V10.8333H16.6667ZM12.0833 11.6667V9.66667H12.0679L12.0525 9.6669L12.0833 11.6667ZM17.5 10.8333H15.5V12.8333H17.5V10.8333ZM17.5 3.33333V1.33333H15.5V3.33333H17.5ZM21.0225 3.33333L22.7071 2.25531L22.1171 1.33333H21.0225V3.33333ZM24.1667 8.24667H26.1667V7.66152L25.8513 7.16865L24.1667 8.24667ZM24.935 7.9L26.6215 6.82488L26.6195 6.82189L24.935 7.9ZM21.6017 2.69167L23.2862 1.61356L23.2836 1.60956L21.6017 2.69167ZM17.5 2.5H15.5V4.5H17.5V2.5ZM12.8385 3.00095C12.2194 3.02 11.6234 3.27627 11.1815 3.72774L14.0402 6.52559C13.7516 6.8204 13.3639 6.98667 12.9615 6.99905L12.8385 3.00095ZM11.1988 3.71031L9.00044 5.90197L11.8246 8.73469L14.0229 6.54303L11.1988 3.71031ZM11.8245 5.90194L10.4704 4.55194L7.6463 7.38472L9.00047 8.73472L11.8245 5.90194ZM10.5012 4.58333C10.0047 4.06614 9.31808 3.79493 8.60553 3.84639C7.95321 3.89351 7.42048 4.19739 7.05851 4.55786C6.69673 4.91814 6.38902 5.45118 6.3407 6.10677C6.28785 6.82372 6.56218 7.51198 7.08061 8.00748L9.84439 5.11585C10.1649 5.42219 10.3674 5.89232 10.3299 6.40083C10.2969 6.84798 10.0918 7.18227 9.88107 7.39214C9.67015 7.60219 9.3369 7.80399 8.89369 7.836C8.39026 7.87236 7.92238 7.67303 7.6155 7.35333L10.5012 4.58333ZM7.05007 7.97766L8.70257 9.626L11.5274 6.794L9.87493 5.14567L7.05007 7.97766ZM8.70079 9.62421C9.64797 10.5714 11.1782 10.5663 12.1215 9.62779L9.3002 6.79221C9.91344 6.18207 10.9104 6.17693 11.5292 6.79579L8.70079 9.62421ZM12.1232 9.6261L14.619 7.13694L11.7943 4.30473L9.29851 6.7939L12.1232 9.6261ZM14.599 7.15663C16.282 5.52458 14.9096 3 12.9008 3V7C11.6487 7 10.6813 5.38375 11.8144 4.28503L14.599 7.15663ZM12.9008 3H12.9V7H12.9008V3ZM0.416667 10.3333H2.91667V6.33333H0.416667V10.3333ZM2.91667 10.3333C2.04293 10.3333 1.33333 9.62374 1.33333 8.75H5.33333C5.33333 7.4146 4.25207 6.33333 2.91667 6.33333V10.3333ZM1.33333 8.75C1.33333 7.87626 2.04293 7.16667 2.91667 7.16667V11.1667C4.25207 11.1667 5.33333 10.0854 5.33333 8.75H1.33333ZM2.91667 7.16667H0.416667V11.1667H2.91667V7.16667ZM0.416667 7.16667C1.2904 7.16667 2 7.87626 2 8.75H-2C-2 10.0854 -0.918736 11.1667 0.416667 11.1667V7.16667ZM2 8.75C2 9.62374 1.2904 10.3333 0.416667 10.3333V6.33333C-0.918736 6.33333 -2 7.4146 -2 8.75H2ZM0.416667 7H2.91667V3H0.416667V7ZM2.91667 7C2.04293 7 1.33333 6.2904 1.33333 5.41667H5.33333C5.33333 4.08126 4.25207 3 2.91667 3V7ZM1.33333 5.41667C1.33333 4.54293 2.04293 3.83333 2.91667 3.83333V7.83333C4.25207 7.83333 5.33333 6.75207 5.33333 5.41667H1.33333ZM2.91667 3.83333H0.416667V7.83333H2.91667V3.83333ZM0.416667 3.83333C1.2904 3.83333 2 4.54293 2 5.41667H-2C-2 6.75207 -0.918736 7.83333 0.416667 7.83333V3.83333ZM2 5.41667C2 6.2904 1.2904 7 0.416667 7V3C-0.918736 3 -2 4.08126 -2 5.41667H2ZM0.416667 3.66667H2.91667V-0.333333H0.416667V3.66667ZM2.91667 3.66667C2.04293 3.66667 1.33333 2.95707 1.33333 2.08333H5.33333C5.33333 0.74793 4.25207 -0.333333 2.91667 -0.333333V3.66667ZM1.33333 2.08333C1.33333 1.2096 2.04293 0.5 2.91667 0.5V4.5C4.25207 4.5 5.33333 3.41874 5.33333 2.08333H1.33333ZM2.91667 0.5H0.416667V4.5H2.91667V0.5ZM0.416667 0.5C1.2904 0.5 2 1.2096 2 2.08333H-2C-2 3.41874 -0.918736 4.5 0.416667 4.5V0.5ZM2 2.08333C2 2.95707 1.2904 3.66667 0.416667 3.66667V-0.333333C-0.918736 -0.333333 -2 0.74793 -2 2.08333H2ZM20.4167 8.83333C18.1663 8.83333 16.3333 10.6663 16.3333 12.9167H20.3333C20.3333 12.9052 20.3353 12.8973 20.3385 12.8898C20.3423 12.8809 20.3491 12.87 20.3595 12.8595C20.37 12.8491 20.3809 12.8423 20.3898 12.8385C20.3973 12.8353 20.4052 12.8333 20.4167 12.8333V8.83333ZM16.3333 12.9167C16.3333 15.1671 18.1663 17 20.4167 17V13C20.4052 13 20.3973 12.998 20.3898 12.9948C20.3809 12.9911 20.37 12.9843 20.3595 12.9738C20.3491 12.9633 20.3423 12.9525 20.3385 12.9436C20.3353 12.9361 20.3333 12.9282 20.3333 12.9167H16.3333ZM20.4167 17C22.6671 17 24.5 15.1671 24.5 12.9167H20.5C20.5 12.9282 20.498 12.9361 20.4948 12.9436C20.4911 12.9525 20.4843 12.9633 20.4738 12.9738C20.4633 12.9843 20.4525 12.9911 20.4436 12.9948C20.4361 12.998 20.4282 13 20.4167 13V17ZM24.5 12.9167C24.5 10.6663 22.6671 8.83333 20.4167 8.83333V12.8333C20.4282 12.8333 20.4361 12.8353 20.4436 12.8385C20.4525 12.8423 20.4633 12.8491 20.4738 12.8595C20.4843 12.87 20.4911 12.8809 20.4948 12.8898C20.498 12.8973 20.5 12.9052 20.5 12.9167H24.5ZM20.4167 13.6667C20.0071 13.6667 19.6667 13.3262 19.6667 12.9167H23.6667C23.6667 11.1171 22.2162 9.66667 20.4167 9.66667V13.6667ZM19.6667 12.9167C19.6667 12.5071 20.0071 12.1667 20.4167 12.1667V16.1667C22.2162 16.1667 23.6667 14.7162 23.6667 12.9167H19.6667ZM20.4167 12.1667C20.8262 12.1667 21.1667 12.5071 21.1667 12.9167H17.1667C17.1667 14.7162 18.6171 16.1667 20.4167 16.1667V12.1667ZM21.1667 12.9167C21.1667 13.3262 20.8262 13.6667 20.4167 13.6667V9.66667C18.6171 9.66667 17.1667 11.1171 17.1667 12.9167H21.1667ZM9.58333 8.83333C7.33293 8.83333 5.5 10.6663 5.5 12.9167H9.5C9.5 12.9052 9.50197 12.8973 9.50516 12.8898C9.50894 12.8809 9.51572 12.87 9.52619 12.8595C9.53666 12.8491 9.54754 12.8423 9.55644 12.8385C9.56394 12.8353 9.57184 12.8333 9.58333 12.8333V8.83333ZM5.5 12.9167C5.5 15.1671 7.33293 17 9.58333 17V13C9.57184 13 9.56394 12.998 9.55644 12.9948C9.54754 12.9911 9.53666 12.9843 9.52619 12.9738C9.51572 12.9633 9.50894 12.9525 9.50516 12.9436C9.50197 12.9361 9.5 12.9282 9.5 12.9167H5.5ZM9.58333 17C11.8337 17 13.6667 15.1671 13.6667 12.9167H9.66667C9.66667 12.9282 9.6647 12.9361 9.66151 12.9436C9.65773 12.9525 9.65095 12.9633 9.64047 12.9738C9.63 12.9843 9.61912 12.9911 9.61023 12.9948C9.60272 12.998 9.59482 13 9.58333 13V17ZM13.6667 12.9167C13.6667 10.6663 11.8337 8.83333 9.58333 8.83333V12.8333C9.59482 12.8333 9.60272 12.8353 9.61023 12.8385C9.61912 12.8423 9.63 12.8491 9.64047 12.8595C9.65095 12.87 9.65773 12.8809 9.66151 12.8898C9.6647 12.8973 9.66667 12.9052 9.66667 12.9167H13.6667ZM9.58333 13.6667C9.17376 13.6667 8.83333 13.3262 8.83333 12.9167H12.8333C12.8333 11.1171 11.3829 9.66667 9.58333 9.66667V13.6667ZM8.83333 12.9167C8.83333 12.5071 9.17376 12.1667 9.58333 12.1667V16.1667C11.3829 16.1667 12.8333 14.7162 12.8333 12.9167H8.83333ZM9.58333 12.1667C9.9929 12.1667 10.3333 12.5071 10.3333 12.9167H6.33333C6.33333 14.7162 7.78376 16.1667 9.58333 16.1667V12.1667ZM10.3333 12.9167C10.3333 13.3262 9.9929 13.6667 9.58333 13.6667V9.66667C7.78376 9.66667 6.33333 11.1171 6.33333 12.9167H10.3333ZM5.41667 -2C3.6271 -2 2.16667 -0.53957 2.16667 1.25H6.16667C6.16667 1.66957 5.83624 2 5.41667 2V-2ZM2.16667 1.25V10.4167H6.16667V1.25H2.16667ZM2.16667 10.4167C2.16667 12.2062 3.6271 13.6667 5.41667 13.6667V9.66667C5.83624 9.66667 6.16667 9.9971 6.16667 10.4167H2.16667ZM5.41667 13.6667H7.08333V9.66667H5.41667V13.6667ZM7.05375 13.6664C7.74147 13.6766 8.41116 13.4062 8.88802 12.8754C9.33018 12.3832 9.50583 11.782 9.50583 11.25C9.50583 10.718 9.33018 10.1168 8.88802 9.62463C8.41116 9.0938 7.74147 8.82338 7.05375 8.83355L7.11292 12.8331C6.70686 12.8391 6.24843 12.6718 5.91239 12.2978C5.61107 11.9623 5.50583 11.5716 5.50583 11.25C5.50583 10.9284 5.61107 10.5377 5.91239 10.2022C6.24843 9.82818 6.70686 9.66088 7.11292 9.66689L7.05375 13.6664ZM7.08333 8.83333H5.41667V12.8333H7.08333V8.83333ZM5.41667 8.83333C5.80985 8.83333 6.21988 8.98687 6.53317 9.30016C6.84647 9.61346 7 10.0235 7 10.4167H3C3 11.7596 4.07376 12.8333 5.41667 12.8333V8.83333ZM7 10.4167V1.25H3V10.4167H7ZM7 1.25C7 1.64318 6.84647 2.05321 6.53317 2.36651C6.21988 2.6798 5.80985 2.83333 5.41667 2.83333V-1.16667C4.07376 -1.16667 3 -0.0929029 3 1.25H7ZM5.41667 2.83333H16.25V-1.16667H5.41667V2.83333ZM16.25 2.83333C15.8568 2.83333 15.4468 2.6798 15.1335 2.36651C14.8202 2.05321 14.6667 1.64318 14.6667 1.25H18.6667C18.6667 -0.0929029 17.5929 -1.16667 16.25 -1.16667V2.83333ZM14.6667 1.25V10.8333H18.6667V1.25H14.6667ZM16.6667 8.83333H12.0833V12.8333H16.6667V8.83333ZM12.0833 8.83333C11.3882 8.83333 10.7243 9.12131 10.2611 9.65819C9.83365 10.1536 9.67153 10.7475 9.67462 11.2651C9.6777 11.782 9.84639 12.3713 10.2756 12.8599C10.7415 13.3903 11.4097 13.6773 12.1142 13.6664L12.0525 9.6669C12.487 9.6602 12.9515 9.84513 13.2808 10.2201C13.5734 10.5532 13.6727 10.9337 13.6745 11.2412C13.6764 11.5493 13.5811 11.9334 13.2896 12.2712C12.9623 12.6506 12.5035 12.8333 12.0833 12.8333V8.83333ZM12.0833 13.6667H17.9167V9.66667H12.0833V13.6667ZM17.9167 13.6667C18.6044 13.6667 19.2653 13.3852 19.7305 12.8535C20.1614 12.361 20.3288 11.7665 20.3273 11.244C20.3257 10.7216 20.155 10.1322 19.7276 9.64483C19.2662 9.11876 18.6087 8.83333 17.9167 8.83333V12.8333C17.4972 12.8333 17.0446 12.6521 16.7203 12.2823C16.4299 11.9511 16.3282 11.5701 16.3273 11.256C16.3264 10.9418 16.426 10.5557 16.7202 10.2194C17.0487 9.844 17.5039 9.66667 17.9167 9.66667V13.6667ZM17.9167 8.83333H17.5V12.8333H17.9167V8.83333ZM19.5 10.8333V3.33333H15.5V10.8333H19.5ZM17.5 5.33333H21.0225V1.33333H17.5V5.33333ZM19.3379 4.41135L22.4821 9.32469L25.8513 7.16865L22.7071 2.25531L19.3379 4.41135ZM22.1667 8.24667V10.4167H26.1667V8.24667H22.1667ZM22.1667 10.4167C22.1667 10.0235 22.3202 9.61346 22.6335 9.30016C22.9468 8.98687 23.3568 8.83333 23.75 8.83333V12.8333C25.0929 12.8333 26.1667 11.7596 26.1667 10.4167H22.1667ZM23.75 8.83333H22.9167V12.8333H23.75V8.83333ZM22.9167 8.83333C22.2242 8.83333 21.5647 9.11934 21.1027 9.6491C20.6753 10.1392 20.5079 10.7299 20.5079 11.25C20.5079 11.7701 20.6753 12.3608 21.1027 12.8509C21.5647 13.3807 22.2242 13.6667 22.9167 13.6667V9.66667C23.3367 9.66667 23.7918 9.84851 24.1175 10.222C24.4086 10.5559 24.5079 10.9383 24.5079 11.25C24.5079 11.5617 24.4086 11.9441 24.1175 12.278C23.7918 12.6515 23.3367 12.8333 22.9167 12.8333V8.83333ZM22.9167 13.6667H23.75V9.66667H22.9167V13.6667ZM23.75 13.6667C25.5396 13.6667 27 12.2062 27 10.4167H23C23 9.9971 23.3304 9.66667 23.75 9.66667V13.6667ZM27 10.4167V8.125H23V10.4167H27ZM27 8.125C27 7.67516 26.8742 7.22128 26.6215 6.82488L23.2485 8.97511C23.0808 8.71205 23 8.4165 23 8.125H27ZM26.6195 6.82189L23.2862 1.61356L19.9171 3.76977L23.2505 8.97811L26.6195 6.82189ZM23.2836 1.60956C22.84 0.919914 22.0755 0.5 21.25 0.5V4.5C20.7111 4.5 20.21 4.22509 19.9197 3.77378L23.2836 1.60956ZM21.25 0.5H17.5V4.5H21.25V0.5ZM19.5 2.5V1.25H15.5V2.5H19.5ZM19.5 1.25C19.5 -0.53957 18.0396 -2 16.25 -2V2C15.8304 2 15.5 1.66957 15.5 1.25H19.5ZM16.25 -2H5.41667V2H16.25V-2Z" fill="white" mask="url(#path-1-inside-1_237_157)"/>
</svg>
