<svg width="25" height="29" viewBox="0 0 25 29" fill="none" xmlns="http://www.w3.org/2000/svg">
<rect x="0.5" y="8.19385" width="24" height="20.3061" rx="2.5" stroke="white" stroke-opacity="0.5"/>
<mask id="path-2-inside-1_205_44" fill="white">
<path d="M18.75 7.69388C18.75 6.6835 18.5883 5.68302 18.2742 4.74956C17.9602 3.81609 17.4998 2.96793 16.9194 2.25348C16.3391 1.53904 15.6501 0.972315 14.8918 0.585661C14.1335 0.199008 13.3208 -4.41649e-08 12.5 0C11.6792 4.41649e-08 10.8665 0.199008 10.1082 0.585662C9.34994 0.972315 8.66095 1.53904 8.08058 2.25348C7.50022 2.96793 7.03984 3.81609 6.72575 4.74956C6.41166 5.68302 6.25 6.6835 6.25 7.69388L12.5 7.69388H18.75Z"/>
</mask>
<path d="M18.75 7.69388C18.75 6.6835 18.5883 5.68302 18.2742 4.74956C17.9602 3.81609 17.4998 2.96793 16.9194 2.25348C16.3391 1.53904 15.6501 0.972315 14.8918 0.585661C14.1335 0.199008 13.3208 -4.41649e-08 12.5 0C11.6792 4.41649e-08 10.8665 0.199008 10.1082 0.585662C9.34994 0.972315 8.66095 1.53904 8.08058 2.25348C7.50022 2.96793 7.03984 3.81609 6.72575 4.74956C6.41166 5.68302 6.25 6.6835 6.25 7.69388L12.5 7.69388H18.75Z" stroke="white" stroke-opacity="0.5" stroke-width="2" mask="url(#path-2-inside-1_205_44)"/>
<path d="M12.9755 12.6996L13.4573 14.1824C13.792 15.2124 14.7519 15.9098 15.835 15.9098H17.394C17.8784 15.9098 18.0798 16.5296 17.6879 16.8143L16.4266 17.7307C15.5504 18.3674 15.1837 19.4958 15.5184 20.5258L16.0002 22.0086C16.1499 22.4693 15.6226 22.8523 15.2308 22.5676L13.9695 21.6512C13.0932 21.0146 11.9068 21.0146 11.0305 21.6512L9.76921 22.5676C9.37735 22.8523 8.85011 22.4693 8.99979 22.0086L9.48157 20.5258C9.81626 19.4958 9.44961 18.3674 8.57339 17.7307L7.31207 16.8143C6.92021 16.5296 7.1216 15.9098 7.60596 15.9098H9.16505C10.2481 15.9098 11.208 15.2124 11.5427 14.1824L12.0245 12.6996C12.1741 12.2389 12.8259 12.2389 12.9755 12.6996Z" stroke="white" stroke-opacity="0.5" stroke-width="2"/>
</svg>
