<svg width="25" height="29" viewBox="0 0 25 29" fill="none" xmlns="http://www.w3.org/2000/svg">
<rect x="0.5" y="8.19385" width="24" height="20.3061" rx="2.5" stroke="white" stroke-opacity="0.5"/>
<mask id="path-2-inside-1_205_44" fill="white">
<path d="M18.75 7.69388C18.75 6.6835 18.5883 5.68302 18.2742 4.74956C17.9602 3.81609 17.4998 2.96793 16.9194 2.25348C16.3391 1.53904 15.6501 0.972315 14.8918 0.585661C14.1335 0.199008 13.3208 -4.41649e-08 12.5 0C11.6792 4.41649e-08 10.8665 0.199008 10.1082 0.585662C9.34994 0.972315 8.66095 1.53904 8.08058 2.25348C7.50022 2.96793 7.03984 3.81609 6.72575 4.74956C6.41166 5.68302 6.25 6.6835 6.25 7.69388L12.5 7.69388H18.75Z"/>
</mask>
<path d="M18.75 7.69388C18.75 6.6835 18.5883 5.68302 18.2742 4.74956C17.9602 3.81609 17.4998 2.96793 16.9194 2.25348C16.3391 1.53904 15.6501 0.972315 14.8918 0.585661C14.1335 0.199008 13.3208 -4.41649e-08 12.5 0C11.6792 4.41649e-08 10.8665 0.199008 10.1082 0.585662C9.34994 0.972315 8.66095 1.53904 8.08058 2.25348C7.50022 2.96793 7.03984 3.81609 6.72575 4.74956C6.41166 5.68302 6.25 6.6835 6.25 7.69388L12.5 7.69388H18.75Z" stroke="white" stroke-opacity="0.5" stroke-width="2" mask="url(#path-2-inside-1_205_44)"/>
<path d="M13.2133 12.6223L13.6951 14.1051C13.9963 15.0322 14.8602 15.6598 15.835 15.6598H17.394C18.1206 15.6598 18.4227 16.5895 17.8349 17.0166L16.5736 17.933C15.785 18.5059 15.455 19.5215 15.7562 20.4486L16.238 21.9314C16.4625 22.6223 15.6716 23.1969 15.0838 22.7699L13.8225 21.8535C13.0339 21.2805 11.9661 21.2805 11.1775 21.8535L9.91615 22.7699C9.32837 23.1969 8.53751 22.6223 8.76202 21.9314L9.24381 20.4486C9.54503 19.5215 9.21504 18.5059 8.42645 17.933L7.16512 17.0166C6.57734 16.5895 6.87942 15.6598 7.60596 15.6598H9.16505C10.1398 15.6598 11.0037 15.0322 11.3049 14.1051L11.7867 12.6223C12.0112 11.9314 12.9888 11.9314 13.2133 12.6223Z" stroke="white" stroke-opacity="0.5" stroke-width="1.5"/>
</svg>
