<svg width="30" height="30" viewBox="0 0 30 30" fill="none" xmlns="http://www.w3.org/2000/svg">
<g clip-path="url(#clip0_233_56)">
<path d="M20.6775 30.7192C20.6775 30.7192 24.624 30.4904 26.5973 27.9428C28.5705 25.3951 22.6508 19 22.6508 19C22.6508 19 19.3621 21.7764 14.7579 21.5477C10.1537 21.3189 8.18033 19 8.18033 19C8.18033 19 0.94498 24.0953 3.57603 28.1716C6.20708 32.2478 20.6775 30.7192 20.6775 30.7192Z" fill="white" fill-opacity="0.5"/>
<path d="M15.4483 17.884C20.1107 17.884 23.8904 14.1044 23.8904 9.442C23.8904 4.77961 20.1107 1 15.4483 1C10.786 1 7.00635 4.77961 7.00635 9.442C7.00635 14.1044 10.786 17.884 15.4483 17.884Z" fill="white" fill-opacity="0.5"/>
</g>
<defs>
<clipPath id="clip0_233_56">
<rect width="30" height="30" fill="white"/>
</clipPath>
</defs>
</svg>
