<svg width="24" height="22" viewBox="0 0 24 22" fill="none" xmlns="http://www.w3.org/2000/svg">
<path d="M12.4755 1.69959L14.0799 6.63729C14.4146 7.66734 15.3745 8.36475 16.4575 8.36475H21.6493C22.1337 8.36475 22.3351 8.98455 21.9432 9.26925L17.743 12.3209C16.8667 12.9575 16.5001 14.0859 16.8348 15.116L18.4391 20.0537C18.5888 20.5144 18.0616 20.8974 17.6697 20.6127L13.4695 17.5611C12.5932 16.9244 11.4068 16.9244 10.5305 17.561L6.33028 20.6127C5.93843 20.8974 5.41119 20.5143 5.56086 20.0537L7.16522 15.116C7.4999 14.0859 7.13326 12.9575 6.25704 12.3209L2.05679 9.26925C1.66493 8.98455 1.86632 8.36475 2.35068 8.36475H7.54247C8.62554 8.36475 9.58543 7.66735 9.92012 6.63729L11.5245 1.69959C11.6741 1.23894 12.3259 1.23894 12.4755 1.69959Z" stroke="white" stroke-width="2"/>
</svg>
